<svg version="1.1" xmlns="http://www.w3.org/2000/svg" xmlns:xlink="http://www.w3.org/1999/xlink" width="468" height="258"><defs/><g><g transform="translate(-198,-78) scale(1,1)"><rect fill="#ffffff" stroke="none" x="344" y="104" width="152" height="62"/></g><g transform="translate(-198,-78) scale(1,1)"><path fill="none" stroke="#000000" d="M 344 104 L 496 104 L 496 166 L 344 166 L 344 104 Z Z" stroke-miterlimit="10"/></g><g transform="translate(-198,-78) scale(1,1)"><path fill="none" stroke="#000000" d="M 344 129 L 496 129" stroke-miterlimit="10"/></g><g transform="translate(-198,-78) scale(1,1)"><g><path fill="none" stroke="none"/><text fill="#000000" stroke="none" font-family="Arial" font-size="13px" font-style="normal" font-weight="bold" text-decoration="none" x="396" y="123.5">Concept</text></g></g><g transform="translate(-198,-78) scale(1,1)"><g><path fill="none" stroke="none"/><text fill="#000000" stroke="none" font-family="Arial" font-size="13px" font-style="normal" font-weight="normal" text-decoration="none" x="349" y="146.5">abstract: Boolean</text></g></g><g transform="translate(-198,-78) scale(1,1)"><g><path fill="none" stroke="none"/><text fill="#000000" stroke="none" font-family="Arial" font-size="13px" font-style="normal" font-weight="normal" text-decoration="none" x="349" y="161.5">name: String</text></g></g><g transform="translate(-198,-78) scale(1,1)"><path fill="none" stroke="#000000" d="M 464 104 L 464 88 L 536 88 L 536 128 L 496 128" stroke-miterlimit="10"/></g><g transform="translate(-198,-78) scale(1,1)"><path fill="none" stroke="#000000" d="M 506.16267485762415 123.79048224398402 L 496 128 L 506.16267485762415 132.209517756016" stroke-miterlimit="10"/></g><g transform="translate(-198,-78) scale(1,1)"><g><path fill="none" stroke="none"/><text fill="#000000" stroke="none" font-family="Arial" font-size="13px" font-style="normal" font-weight="normal" text-decoration="none" x="503.5" y="147.5">directAncestors</text></g></g><g transform="translate(-198,-78) scale(1,1)"><g><path fill="none" stroke="none"/><text fill="#000000" stroke="none" font-family="Arial" font-size="13px" font-style="normal" font-weight="normal" text-decoration="none" x="509.5" y="124.5">0..*</text></g></g><g transform="translate(-198,-78) scale(1,1)"><path fill="none" stroke="#000000" d="M 360 104 L 360 88 L 288 88 L 288 128 L 344 128" stroke-miterlimit="10"/></g><g transform="translate(-198,-78) scale(1,1)"><path fill="none" stroke="#000000" d="M 333.83732514237585 132.209517756016 L 344 128 L 333.83732514237585 123.79048224398402" stroke-miterlimit="10"/></g><g transform="translate(-198,-78) scale(1,1)"><g><path fill="none" stroke="none"/><text fill="#000000" stroke="none" font-family="Arial" font-size="13px" font-style="normal" font-weight="normal" text-decoration="none" x="254.5" y="148.5">/ allAncestors</text></g></g><g transform="translate(-198,-78) scale(1,1)"><g><path fill="none" stroke="none"/><text fill="#000000" stroke="none" font-family="Arial" font-size="13px" font-style="normal" font-weight="normal" text-decoration="none" x="311.5" y="123.5">0..*</text></g></g><g transform="translate(-198,-78) scale(1,1)"><rect fill="#ffffff" stroke="none" x="368" y="232" width="99" height="62"/></g><g transform="translate(-198,-78) scale(1,1)"><path fill="none" stroke="#000000" d="M 368 232 L 467 232 L 467 294 L 368 294 L 368 232 Z Z" stroke-miterlimit="10"/></g><g transform="translate(-198,-78) scale(1,1)"><path fill="none" stroke="#000000" d="M 368 257 L 467 257" stroke-miterlimit="10"/></g><g transform="translate(-198,-78) scale(1,1)"><g><path fill="none" stroke="none"/><text fill="#000000" stroke="none" font-family="Arial" font-size="13px" font-style="normal" font-weight="bold" text-decoration="none" x="393" y="251.5">Property</text></g></g><g transform="translate(-198,-78) scale(1,1)"><g><path fill="none" stroke="none"/><text fill="#000000" stroke="none" font-family="Arial" font-size="13px" font-style="normal" font-weight="normal" text-decoration="none" x="373" y="274.5">name: String</text></g></g><g transform="translate(-198,-78) scale(1,1)"><path fill="none" stroke="#000000" d="M 392 166 L 392 232" stroke-miterlimit="10"/></g><g transform="translate(-198,-78) scale(1,1)"><path fill="none" stroke="#000000" d="M 387.790482243984 221.83732514237585 L 392 232 L 396.209517756016 221.83732514237585" stroke-miterlimit="10"/></g><g transform="translate(-198,-78) scale(1,1)"><g><path fill="none" stroke="none"/><text fill="#000000" stroke="none" font-family="Arial" font-size="13px" font-style="normal" font-weight="normal" text-decoration="none" x="398.5" y="219.5">/ properties</text></g></g><g transform="translate(-198,-78) scale(1,1)"><g><path fill="none" stroke="none"/><text fill="#000000" stroke="none" font-family="Arial" font-size="13px" font-style="normal" font-weight="normal" text-decoration="none" x="365.5" y="219.5">0..*</text></g></g><g transform="translate(-198,-78) scale(1,1)"><path fill="none" stroke="#000000" d="M 352 166 L 352 248 L 368 248" stroke-miterlimit="10"/></g><g transform="translate(-198,-78) scale(1,1)"><path fill="none" stroke="#000000" d="M 357.83732514237585 252.209517756016 L 368 248 L 357.83732514237585 243.790482243984" stroke-miterlimit="10"/></g><g transform="translate(-198,-78) scale(1,1)"><g><path fill="none" stroke="none"/><text fill="#000000" stroke="none" font-family="Arial" font-size="13px" font-style="normal" font-weight="normal" text-decoration="none" x="262.5" y="243.5">/ allProperties</text></g></g><g transform="translate(-198,-78) scale(1,1)"><g><path fill="none" stroke="none"/><text fill="#000000" stroke="none" font-family="Arial" font-size="13px" font-style="normal" font-weight="normal" text-decoration="none" x="342.5" y="266.5">0..*</text></g></g><g transform="translate(-198,-78) scale(1,1)"><path fill="none" stroke="#000000" d="M 488 166 L 488 248 L 467 248" stroke-miterlimit="10"/></g><g transform="translate(-198,-78) scale(1,1)"><path fill="none" stroke="#000000" d="M 477.16267485762415 243.790482243984 L 467 248 L 477.16267485762415 252.209517756016" stroke-miterlimit="10"/></g><g transform="translate(-198,-78) scale(1,1)"><g><path fill="none" stroke="none"/><text fill="#000000" stroke="none" font-family="Arial" font-size="13px" font-style="normal" font-weight="normal" text-decoration="none" x="494.5" y="244.5">/ inheritedProperties</text></g></g><g transform="translate(-198,-78) scale(1,1)"><g><path fill="none" stroke="none"/><text fill="#000000" stroke="none" font-family="Arial" font-size="13px" font-style="normal" font-weight="normal" text-decoration="none" x="470.5" y="267.5">0..*</text></g></g><g transform="translate(-198,-78) scale(1,1)"><rect fill="#ffffff" stroke="none" x="544" y="264" width="112" height="62"/></g><g transform="translate(-198,-78) scale(1,1)"><path fill="none" stroke="#000000" d="M 544 264 L 656 264 L 656 326 L 544 326 L 544 264 Z Z" stroke-miterlimit="10"/></g><g transform="translate(-198,-78) scale(1,1)"><path fill="none" stroke="#000000" d="M 544 289 L 656 289" stroke-miterlimit="10"/></g><g transform="translate(-198,-78) scale(1,1)"><g><path fill="none" stroke="none"/><text fill="#000000" stroke="none" font-family="Arial" font-size="13px" font-style="normal" font-weight="bold" text-decoration="none" x="585.5" y="283.5">Type</text></g></g><g transform="translate(-198,-78) scale(1,1)"><g><path fill="none" stroke="none"/><text fill="#000000" stroke="none" font-family="Arial" font-size="13px" font-style="normal" font-weight="normal" text-decoration="none" x="549" y="306.5">name: String</text></g></g><g transform="translate(-198,-78) scale(1,1)"><g><path fill="none" stroke="none"/><text fill="#000000" stroke="none" font-family="Arial" font-size="13px" font-style="normal" font-weight="normal" text-decoration="none" x="549" y="321.5">cardinality: String</text></g></g><g transform="translate(-198,-78) scale(1,1)"><path fill="none" stroke="#000000" d="M 467 280 L 544 280" stroke-miterlimit="10"/></g><g transform="translate(-198,-78) scale(1,1)"><path fill="none" stroke="#000000" d="M 533.8373251423759 284.209517756016 L 544 280 L 533.8373251423758 275.790482243984" stroke-miterlimit="10"/></g><g transform="translate(-198,-78) scale(1,1)"><g><path fill="none" stroke="none"/><text fill="#000000" stroke="none" font-family="Arial" font-size="13px" font-style="normal" font-weight="normal" text-decoration="none" x="510.5" y="298.5">0..1</text></g></g><g transform="translate(-198,-78) scale(1,1)"><rect fill="#ffffff" stroke="none" x="208" y="264" width="79" height="32"/></g><g transform="translate(-198,-78) scale(1,1)"><path fill="none" stroke="#000000" d="M 208 264 L 287 264 L 287 296 L 208 296 L 208 264 Z Z" stroke-miterlimit="10"/></g><g transform="translate(-198,-78) scale(1,1)"><g><path fill="none" stroke="none"/><text fill="#000000" stroke="none" font-family="Arial" font-size="13px" font-style="normal" font-weight="bold" text-decoration="none" x="215" y="283.5">Expression</text></g></g><g transform="translate(-198,-78) scale(1,1)"><path fill="none" stroke="#000000" d="M 368 280 L 287 280" stroke-miterlimit="10"/></g><g transform="translate(-198,-78) scale(1,1)"><path fill="none" stroke="#000000" d="M 297.16267485762415 275.790482243984 L 287 280 L 297.16267485762415 284.209517756016" stroke-miterlimit="10"/></g><g transform="translate(-198,-78) scale(1,1)"><g><path fill="none" stroke="none"/><text fill="#000000" stroke="none" font-family="Arial" font-size="13px" font-style="normal" font-weight="normal" text-decoration="none" x="294.5" y="297.5">0..1</text></g></g></g></svg>