<svg version="1.1" xmlns="http://www.w3.org/2000/svg" xmlns:xlink="http://www.w3.org/1999/xlink" width="482" height="222"><defs/><g><g transform="translate(-14,-5) scale(1,1)"><rect fill="#ffffff" stroke="none" x="40" y="48" width="90" height="24"/></g><g transform="translate(-14,-5) scale(1,1)"><path fill="none" stroke="#000000" d="M 40 48 L 130 48 L 130 72 L 40 72 L 40 48 Z Z" stroke-miterlimit="10"/></g><g transform="translate(-14,-5) scale(1,1)"><g><path fill="none" stroke="none"/><text fill="#000000" stroke="none" font-family="Arial" font-size="13px" font-style="normal" font-weight="bold" text-decoration="none" x="54.5" y="67.5">BookStore</text></g></g><g transform="translate(-14,-5) scale(1,1)"><rect fill="#ffffff" stroke="none" x="24" y="136" width="126" height="77"/></g><g transform="translate(-14,-5) scale(1,1)"><path fill="none" stroke="#000000" d="M 24 136 L 150 136 L 150 213 L 24 213 L 24 136 Z Z" stroke-miterlimit="10"/></g><g transform="translate(-14,-5) scale(1,1)"><path fill="none" stroke="#000000" d="M 24 161 L 150 161" stroke-miterlimit="10"/></g><g transform="translate(-14,-5) scale(1,1)"><g><path fill="none" stroke="none"/><text fill="#000000" stroke="none" font-family="Arial" font-size="13px" font-style="normal" font-weight="bold" text-decoration="none" x="72" y="155.5">Book</text></g></g><g transform="translate(-14,-5) scale(1,1)"><g><path fill="none" stroke="none"/><text fill="#000000" stroke="none" font-family="Arial" font-size="13px" font-style="normal" font-weight="normal" text-decoration="none" x="29" y="178.5">title: String</text></g></g><g transform="translate(-14,-5) scale(1,1)"><g><path fill="none" stroke="none"/><text fill="#000000" stroke="none" font-family="Arial" font-size="13px" font-style="normal" font-weight="normal" text-decoration="none" x="29" y="193.5">price: Decimal</text></g></g><g transform="translate(-14,-5) scale(1,1)"><g><path fill="none" stroke="none"/><text fill="#000000" stroke="none" font-family="Arial" font-size="13px" font-style="normal" font-weight="normal" text-decoration="none" x="29" y="208.5">quantity: Integer = 0</text></g></g><g transform="translate(-14,-5) scale(1,1)"><rect fill="#ffffff" stroke="none" x="328" y="40" width="126" height="57"/></g><g transform="translate(-14,-5) scale(1,1)"><path fill="none" stroke="#000000" d="M 328 40 L 454 40 L 454 97 L 328 97 L 328 40 Z Z" stroke-miterlimit="10"/></g><g transform="translate(-14,-5) scale(1,1)"><path fill="none" stroke="#000000" d="M 328 65 L 454 65" stroke-miterlimit="10"/></g><g transform="translate(-14,-5) scale(1,1)"><g><path fill="none" stroke="none"/><text fill="#000000" stroke="none" font-family="Arial" font-size="13px" font-style="normal" font-weight="bold" text-decoration="none" x="363" y="59.5">Customer</text></g></g><g transform="translate(-14,-5) scale(1,1)"><g><path fill="none" stroke="none"/><text fill="#000000" stroke="none" font-family="Arial" font-size="13px" font-style="normal" font-weight="normal" text-decoration="none" x="333" y="82.5">/totalSales: Decimal</text></g></g><g transform="translate(-14,-5) scale(1,1)"><rect fill="#ffffff" stroke="none" x="336" y="160" width="97" height="57"/></g><g transform="translate(-14,-5) scale(1,1)"><path fill="none" stroke="#000000" d="M 336 160 L 433 160 L 433 217 L 336 217 L 336 160 Z Z" stroke-miterlimit="10"/></g><g transform="translate(-14,-5) scale(1,1)"><path fill="none" stroke="#000000" d="M 336 185 L 433 185" stroke-miterlimit="10"/></g><g transform="translate(-14,-5) scale(1,1)"><g><path fill="none" stroke="none"/><text fill="#000000" stroke="none" font-family="Arial" font-size="13px" font-style="normal" font-weight="bold" text-decoration="none" x="368.5" y="179.5">Order</text></g></g><g transform="translate(-14,-5) scale(1,1)"><g><path fill="none" stroke="none"/><text fill="#000000" stroke="none" font-family="Arial" font-size="13px" font-style="normal" font-weight="normal" text-decoration="none" x="341" y="202.5">+total: Decimal</text></g></g><g transform="translate(-14,-5) scale(1,1)"><path fill="none" stroke="#000000" d="M 85 73 L 86 135" stroke-miterlimit="10"/></g><g transform="translate(-14,-5) scale(1,1)"><path fill="none" stroke="#000000" d="M 81.62713688711735 124.90653339055456 L 86 135 L 90.04507752489903 124.7707601544613" stroke-miterlimit="10"/></g><g transform="translate(-14,-5) scale(1,1)"><g><path fill="none" stroke="none"/><text fill="#000000" stroke="none" font-family="Arial" font-size="13px" font-style="normal" font-weight="normal" text-decoration="none" x="43.5" y="92.5">books</text></g></g><g transform="translate(-14,-5) scale(1,1)"><g><path fill="none" stroke="none"/><text fill="#000000" stroke="none" font-family="Arial" font-size="13px" font-style="normal" font-weight="normal" text-decoration="none" x="53.5" y="132.5">1..*</text></g></g><g transform="translate(-14,-5) scale(1,1)"><path fill="none" stroke="#000000" d="M 130 56 L 328 56" stroke-miterlimit="10"/></g><g transform="translate(-14,-5) scale(1,1)"><path fill="none" stroke="#000000" d="M 317.83732514237585 60.20951775601599 L 328 56 L 317.83732514237585 51.790482243984016" stroke-miterlimit="10"/></g><g transform="translate(-14,-5) scale(1,1)"><g><path fill="none" stroke="none"/><text fill="#000000" stroke="none" font-family="Arial" font-size="13px" font-style="normal" font-weight="normal" text-decoration="none" x="135.5" y="72.5">/ goldCustomers</text></g></g><g transform="translate(-14,-5) scale(1,1)"><g><path fill="none" stroke="none"/><text fill="#000000" stroke="none" font-family="Arial" font-size="13px" font-style="normal" font-weight="normal" text-decoration="none" x="295.5" y="74.5">0..*</text></g></g><g transform="translate(-14,-5) scale(1,1)"><path fill="none" stroke="#000000" d="M 80 48 L 80 16 L 344 16 L 344 40" stroke-miterlimit="10"/></g><g transform="translate(-14,-5) scale(1,1)"><path fill="none" stroke="#000000" d="M 339.790482243984 29.837325142375846 L 344 40 L 348.209517756016 29.837325142375846" stroke-miterlimit="10"/></g><g transform="translate(-14,-5) scale(1,1)"><g><path fill="none" stroke="none"/><text fill="#000000" stroke="none" font-family="Arial" font-size="13px" font-style="normal" font-weight="normal" text-decoration="none" x="89.5" y="35.5">customers</text></g></g><g transform="translate(-14,-5) scale(1,1)"><g><path fill="none" stroke="none"/><text fill="#000000" stroke="none" font-family="Arial" font-size="13px" font-style="normal" font-weight="normal" text-decoration="none" x="349.5" y="27.5">0..*</text></g></g><g transform="translate(-14,-5) scale(1,1)"><path fill="none" stroke="#000000" d="M 389 160 L 389 97" stroke-miterlimit="10"/></g><g transform="translate(-14,-5) scale(1,1)"><g><path fill="none" stroke="none"/><text fill="#000000" stroke="none" font-family="Arial" font-size="13px" font-style="normal" font-weight="normal" text-decoration="none" x="394.5" y="139.5">CustomerOrder</text></g></g><g transform="translate(-14,-5) scale(1,1)"><g><path fill="none" stroke="none"/><text fill="#000000" stroke="none" font-family="Arial" font-size="13px" font-style="normal" font-weight="normal" text-decoration="none" x="366.5" y="155.5">0..*</text></g></g></g></svg>