<svg version="1.1" xmlns="http://www.w3.org/2000/svg" xmlns:xlink="http://www.w3.org/1999/xlink" width="905.39501953125" height="270"><defs/><g><g transform="translate(2,-14) scale(1,1)"><rect fill="#ffffff" stroke="none" x="368" y="24" width="157.75537109375" height="26"/></g><g transform="translate(2,-14) scale(1,1)"><path fill="none" stroke="#000000" d="M 368 24 L 525.75537109375 24 L 525.75537109375 50 L 368 50 L 368 24 Z Z" stroke-miterlimit="10"/></g><g transform="translate(2,-14) scale(1,1)"><rect fill="#ffffff" stroke="none" x="368" y="24" width="157.75537109375" height="26"/></g><g transform="translate(2,-14) scale(1,1)"><path fill="none" stroke="#000000" d="M 368 24 L 525.75537109375 24 L 525.75537109375 50 L 368 50 L 368 24 Z Z" stroke-miterlimit="10"/></g><g transform="translate(2,-14) scale(1,1)"><g><path fill="none" stroke="none"/><text fill="#000000" stroke="none" font-family="Arial" font-size="15px" font-style="normal" font-weight="bold" text-decoration="none" x="381.877685546875" y="45.5">Bookstore: Concept</text><path fill="none" stroke="#000000" d="M 517.377685546875 45.5 L 376.377685546875 45.5" stroke-miterlimit="10"/></g></g><g transform="translate(2,-14) scale(1,1)"><rect fill="#ffffff" stroke="none" x="72" y="248" width="100" height="26"/></g><g transform="translate(2,-14) scale(1,1)"><path fill="none" stroke="#000000" d="M 72 248 L 172 248 L 172 274 L 72 274 L 72 248 Z Z" stroke-miterlimit="10"/></g><g transform="translate(2,-14) scale(1,1)"><rect fill="#ffffff" stroke="none" x="72" y="248" width="100" height="26"/></g><g transform="translate(2,-14) scale(1,1)"><path fill="none" stroke="#000000" d="M 72 248 L 172 248 L 172 274 L 72 274 L 72 248 Z Z" stroke-miterlimit="10"/></g><g transform="translate(2,-14) scale(1,1)"><g><path fill="none" stroke="none"/><text fill="#000000" stroke="none" font-family="Arial" font-size="15px" font-style="normal" font-weight="bold" text-decoration="none" x="84.5" y="269.5">Book: Type</text><path fill="none" stroke="#000000" d="M 162 269.5 L 82 269.5" stroke-miterlimit="10"/></g></g><g transform="translate(2,-14) scale(1,1)"><rect fill="#ffffff" stroke="none" x="528" y="248" width="129.65234375" height="26"/></g><g transform="translate(2,-14) scale(1,1)"><path fill="none" stroke="#000000" d="M 528 248 L 657.65234375 248 L 657.65234375 274 L 528 274 L 528 248 Z Z" stroke-miterlimit="10"/></g><g transform="translate(2,-14) scale(1,1)"><rect fill="#ffffff" stroke="none" x="528" y="248" width="129.65234375" height="26"/></g><g transform="translate(2,-14) scale(1,1)"><path fill="none" stroke="#000000" d="M 528 248 L 657.65234375 248 L 657.65234375 274 L 528 274 L 528 248 Z Z" stroke-miterlimit="10"/></g><g transform="translate(2,-14) scale(1,1)"><g><path fill="none" stroke="none"/><text fill="#000000" stroke="none" font-family="Arial" font-size="15px" font-style="normal" font-weight="bold" text-decoration="none" x="540.326171875" y="269.5">Customer: Type</text><path fill="none" stroke="#000000" d="M 648.826171875 269.5 L 536.826171875 269.5" stroke-miterlimit="10"/></g></g><g transform="translate(2,-14) scale(1,1)"><rect fill="#ffffff" stroke="none" x="776" y="248" width="103" height="26"/></g><g transform="translate(2,-14) scale(1,1)"><path fill="none" stroke="#000000" d="M 776 248 L 879 248 L 879 274 L 776 274 L 776 248 Z Z" stroke-miterlimit="10"/></g><g transform="translate(2,-14) scale(1,1)"><rect fill="#ffffff" stroke="none" x="776" y="248" width="103" height="26"/></g><g transform="translate(2,-14) scale(1,1)"><path fill="none" stroke="#000000" d="M 776 248 L 879 248 L 879 274 L 776 274 L 776 248 Z Z" stroke-miterlimit="10"/></g><g transform="translate(2,-14) scale(1,1)"><g><path fill="none" stroke="none"/><text fill="#000000" stroke="none" font-family="Arial" font-size="15px" font-style="normal" font-weight="bold" text-decoration="none" x="788" y="269.5">Order: Type</text><path fill="none" stroke="#000000" d="M 869.5 269.5 L 785.5 269.5" stroke-miterlimit="10"/></g></g><g transform="translate(2,-14) scale(1,1)"><rect fill="#ffffff" stroke="none" x="576" y="152" width="163.578125" height="26"/></g><g transform="translate(2,-14) scale(1,1)"><path fill="none" stroke="#000000" d="M 576 152 L 739.578125 152 L 739.578125 178 L 576 178 L 576 152 Z Z" stroke-miterlimit="10"/></g><g transform="translate(2,-14) scale(1,1)"><rect fill="#ffffff" stroke="none" x="576" y="152" width="163.578125" height="26"/></g><g transform="translate(2,-14) scale(1,1)"><path fill="none" stroke="#000000" d="M 576 152 L 739.578125 152 L 739.578125 178 L 576 178 L 576 152 Z Z" stroke-miterlimit="10"/></g><g transform="translate(2,-14) scale(1,1)"><g><path fill="none" stroke="none"/><text fill="#000000" stroke="none" font-family="Arial" font-size="15px" font-style="normal" font-weight="bold" text-decoration="none" x="591.2890625" y="173.5">customers: Property</text><path fill="none" stroke="#000000" d="M 729.7890625 173.5 L 585.7890625 173.5" stroke-miterlimit="10"/></g></g><g transform="translate(2,-14) scale(1,1)"><rect fill="#ffffff" stroke="none" x="760" y="152" width="133.39501953125" height="26"/></g><g transform="translate(2,-14) scale(1,1)"><path fill="none" stroke="#000000" d="M 760 152 L 893.39501953125 152 L 893.39501953125 178 L 760 178 L 760 152 Z Z" stroke-miterlimit="10"/></g><g transform="translate(2,-14) scale(1,1)"><rect fill="#ffffff" stroke="none" x="760" y="152" width="133.39501953125" height="26"/></g><g transform="translate(2,-14) scale(1,1)"><path fill="none" stroke="#000000" d="M 760 152 L 893.39501953125 152 L 893.39501953125 178 L 760 178 L 760 152 Z Z" stroke-miterlimit="10"/></g><g transform="translate(2,-14) scale(1,1)"><g><path fill="none" stroke="none"/><text fill="#000000" stroke="none" font-family="Arial" font-size="15px" font-style="normal" font-weight="bold" text-decoration="none" x="773.697509765625" y="173.5">orders: Property</text><path fill="none" stroke="#000000" d="M 884.697509765625 173.5 L 768.697509765625 173.5" stroke-miterlimit="10"/></g></g><g transform="translate(2,-14) scale(1,1)"><rect fill="#ffffff" stroke="none" x="368" y="152" width="200.57275390625" height="26"/></g><g transform="translate(2,-14) scale(1,1)"><path fill="none" stroke="#000000" d="M 368 152 L 568.57275390625 152 L 568.57275390625 178 L 368 178 L 368 152 Z Z" stroke-miterlimit="10"/></g><g transform="translate(2,-14) scale(1,1)"><rect fill="#ffffff" stroke="none" x="368" y="152" width="200.57275390625" height="26"/></g><g transform="translate(2,-14) scale(1,1)"><path fill="none" stroke="#000000" d="M 368 152 L 568.57275390625 152 L 568.57275390625 178 L 368 178 L 368 152 Z Z" stroke-miterlimit="10"/></g><g transform="translate(2,-14) scale(1,1)"><g><path fill="none" stroke="none"/><text fill="#000000" stroke="none" font-family="Arial" font-size="15px" font-style="normal" font-weight="bold" text-decoration="none" x="386.786376953125" y="173.5">goldCustomers: Property</text><path fill="none" stroke="#000000" d="M 557.286376953125 173.5 L 379.286376953125 173.5" stroke-miterlimit="10"/></g></g><g transform="translate(2,-14) scale(1,1)"><rect fill="#ffffff" stroke="none" x="144" y="152" width="190.2236328125" height="26"/></g><g transform="translate(2,-14) scale(1,1)"><path fill="none" stroke="#000000" d="M 144 152 L 334.2236328125 152 L 334.2236328125 178 L 144 178 L 144 152 Z Z" stroke-miterlimit="10"/></g><g transform="translate(2,-14) scale(1,1)"><rect fill="#ffffff" stroke="none" x="144" y="152" width="190.2236328125" height="26"/></g><g transform="translate(2,-14) scale(1,1)"><path fill="none" stroke="#000000" d="M 144 152 L 334.2236328125 152 L 334.2236328125 178 L 144 178 L 144 152 Z Z" stroke-miterlimit="10"/></g><g transform="translate(2,-14) scale(1,1)"><g><path fill="none" stroke="none"/><text fill="#000000" stroke="none" font-family="Arial" font-size="15px" font-style="normal" font-weight="bold" text-decoration="none" x="161.11181640625" y="173.5">orderedBooks: Property</text><path fill="none" stroke="#000000" d="M 324.11181640625 173.5 L 154.11181640625 173.5" stroke-miterlimit="10"/></g></g><g transform="translate(2,-14) scale(1,1)"><path fill="none" stroke="#000000" d="M 423 51 L 262 151" stroke-miterlimit="10"/></g><g transform="translate(2,-14) scale(1,1)"><path fill="none" stroke="#000000" d="M 268.41191040587654 142.06202456106462 L 262 151 L 272.8540083713059 149.21380228540588" stroke-miterlimit="10"/></g><g transform="translate(2,-14) scale(1,1)"><path fill="none" stroke="#000000" d="M 469 51 L 634 151" stroke-miterlimit="10"/></g><g transform="translate(2,-14) scale(1,1)"><path fill="none" stroke="#000000" d="M 623.1271022221028 149.33263863802773 L 634 151 L 627.4907027758397 142.13269772436172" stroke-miterlimit="10"/></g><g transform="translate(2,-14) scale(1,1)"><path fill="none" stroke="#000000" d="M 448 51 L 466 151" stroke-miterlimit="10"/></g><g transform="translate(2,-14) scale(1,1)"><path fill="none" stroke="#000000" d="M 460.05671450062664 141.74379357009914 L 466 151 L 468.3425888555108 140.25233618622" stroke-miterlimit="10"/></g><g transform="translate(2,-14) scale(1,1)"><path fill="none" stroke="#000000" d="M 488 51 L 784 151" stroke-miterlimit="10"/></g><g transform="translate(2,-14) scale(1,1)"><path fill="none" stroke="#000000" d="M 773.024606650767 151.73535082077376 L 784 151 L 775.7192533846475 143.75919648848787" stroke-miterlimit="10"/></g><g transform="translate(2,-14) scale(1,1)"><path fill="none" stroke="#000000" d="M 222 179 L 139 247" stroke-miterlimit="10"/></g><g transform="translate(2,-14) scale(1,1)"><path fill="none" stroke="#000000" d="M 144.19349323440832 237.30321558328973 L 139 247 L 149.52901630085645 243.81569226733671" stroke-miterlimit="10"/></g><g transform="translate(2,-14) scale(1,1)"><path fill="none" stroke="#000000" d="M 486 179 L 574 247" stroke-miterlimit="10"/></g><g transform="translate(2,-14) scale(1,1)"><path fill="none" stroke="#000000" d="M 563.3845286984867 244.11698611748966 L 574 247 L 568.5323269237867 237.45512959063075" stroke-miterlimit="10"/></g><g transform="translate(2,-14) scale(1,1)"><path fill="none" stroke="#000000" d="M 648 179 L 601 247" stroke-miterlimit="10"/></g><g transform="translate(2,-14) scale(1,1)"><path fill="none" stroke="#000000" d="M 603.3154363353085 236.24645386037085 L 601 247 L 610.2411661312366 241.03335533696819" stroke-miterlimit="10"/></g><g transform="translate(2,-14) scale(1,1)"><path fill="none" stroke="#000000" d="M 826 179 L 827 247" stroke-miterlimit="10"/></g><g transform="translate(2,-14) scale(1,1)"><path fill="none" stroke="#000000" d="M 822.6415024084882 236.90032184944562 L 827 247 L 831.0596277053154 236.77652588919815" stroke-miterlimit="10"/></g><g transform="translate(2,-14) scale(1,1)"><rect fill="#ffffff" stroke="none" x="8" y="152" width="130.04052734375" height="26"/></g><g transform="translate(2,-14) scale(1,1)"><path fill="none" stroke="#000000" d="M 8 152 L 138.04052734375 152 L 138.04052734375 178 L 8 178 L 8 152 Z Z" stroke-miterlimit="10"/></g><g transform="translate(2,-14) scale(1,1)"><rect fill="#ffffff" stroke="none" x="8" y="152" width="130.04052734375" height="26"/></g><g transform="translate(2,-14) scale(1,1)"><path fill="none" stroke="#000000" d="M 8 152 L 138.04052734375 152 L 138.04052734375 178 L 8 178 L 8 152 Z Z" stroke-miterlimit="10"/></g><g transform="translate(2,-14) scale(1,1)"><g><path fill="none" stroke="none"/><text fill="#000000" stroke="none" font-family="Arial" font-size="15px" font-style="normal" font-weight="bold" text-decoration="none" x="21.020263671875" y="173.5">books: Property</text><path fill="none" stroke="#000000" d="M 129.520263671875 173.5 L 16.520263671875 173.5" stroke-miterlimit="10"/></g></g><g transform="translate(2,-14) scale(1,1)"><path fill="none" stroke="#000000" d="M 405 51 L 114 151" stroke-miterlimit="10"/></g><g transform="translate(2,-14) scale(1,1)"><path fill="none" stroke="#000000" d="M 122.24297596189018 143.71622712519806 L 114 151 L 124.97906939220535 151.67825900741516" stroke-miterlimit="10"/></g><g transform="translate(2,-14) scale(1,1)"><path fill="none" stroke="#000000" d="M 80 179 L 115 247" stroke-miterlimit="10"/></g><g transform="translate(2,-14) scale(1,1)"><path fill="none" stroke="#000000" d="M 106.60628562037454 239.89046000691545 L 115 247 L 114.09195158305086 236.03754370259674" stroke-miterlimit="10"/></g><g transform="translate(2,-14) scale(1,1)"><rect fill="#ffffff" stroke="none" x="184" y="248" width="134" height="26"/></g><g transform="translate(2,-14) scale(1,1)"><path fill="none" stroke="#000000" d="M 184 248 L 318 248 L 318 274 L 184 274 L 184 248 Z Z" stroke-miterlimit="10"/></g><g transform="translate(2,-14) scale(1,1)"><rect fill="#ffffff" stroke="none" x="184" y="248" width="134" height="26"/></g><g transform="translate(2,-14) scale(1,1)"><path fill="none" stroke="#000000" d="M 184 248 L 318 248 L 318 274 L 184 274 L 184 248 Z Z" stroke-miterlimit="10"/></g><g transform="translate(2,-14) scale(1,1)"><g><path fill="none" stroke="none"/><text fill="#000000" stroke="none" font-family="Arial" font-size="15px" font-style="normal" font-weight="bold" text-decoration="none" x="210" y="269.5">: Expression</text><path fill="none" stroke="#000000" d="M 295 269.5 L 207 269.5" stroke-miterlimit="10"/></g></g><g transform="translate(2,-14) scale(1,1)"><path fill="none" stroke="#000000" d="M 241 179 L 249 247" stroke-miterlimit="10"/></g><g transform="translate(2,-14) scale(1,1)"><path fill="none" stroke="#000000" d="M 243.6318952877182 237.39877862988368 L 249 247 L 251.99326549430853 236.41508801734366" stroke-miterlimit="10"/></g><g transform="translate(2,-14) scale(1,1)"><rect fill="#ffffff" stroke="none" x="368" y="248" width="101.6884765625" height="26"/></g><g transform="translate(2,-14) scale(1,1)"><path fill="none" stroke="#000000" d="M 368 248 L 469.6884765625 248 L 469.6884765625 274 L 368 274 L 368 248 Z Z" stroke-miterlimit="10"/></g><g transform="translate(2,-14) scale(1,1)"><rect fill="#ffffff" stroke="none" x="368" y="248" width="101.6884765625" height="26"/></g><g transform="translate(2,-14) scale(1,1)"><path fill="none" stroke="#000000" d="M 368 248 L 469.6884765625 248 L 469.6884765625 274 L 368 274 L 368 248 Z Z" stroke-miterlimit="10"/></g><g transform="translate(2,-14) scale(1,1)"><g><path fill="none" stroke="none"/><text fill="#000000" stroke="none" font-family="Arial" font-size="15px" font-style="normal" font-weight="bold" text-decoration="none" x="377.84423828125" y="269.5">: Expression</text><path fill="none" stroke="#000000" d="M 462.84423828125 269.5 L 374.84423828125 269.5" stroke-miterlimit="10"/></g></g><g transform="translate(2,-14) scale(1,1)"><path fill="none" stroke="#000000" d="M 461 179 L 425 247" stroke-miterlimit="10"/></g><g transform="translate(2,-14) scale(1,1)"><path fill="none" stroke="#000000" d="M 426.03466984607826 236.0487690961419 L 425 247 L 433.4753116989089 239.98793242999344" stroke-miterlimit="10"/></g></g></svg>