<svg version="1.1" xmlns="http://www.w3.org/2000/svg" xmlns:xlink="http://www.w3.org/1999/xlink" width="809" height="478"><defs/><g><g transform="translate(-38,-14) scale(1,1)"><rect fill="#ffffff" stroke="none" x="368" y="24" width="150" height="26"/></g><g transform="translate(-38,-14) scale(1,1)"><path fill="none" stroke="#000000" d="M 368 24 L 518 24 L 518 50 L 368 50 L 368 24 Z Z" stroke-miterlimit="10"/></g><g transform="translate(-38,-14) scale(1,1)"><rect fill="#ffffff" stroke="none" x="368" y="24" width="150" height="26"/></g><g transform="translate(-38,-14) scale(1,1)"><path fill="none" stroke="#000000" d="M 368 24 L 518 24 L 518 50 L 368 50 L 368 24 Z Z" stroke-miterlimit="10"/></g><g transform="translate(-38,-14) scale(1,1)"><g><path fill="none" stroke="none"/><text fill="#000000" stroke="none" font-family="Arial" font-size="15px" font-style="normal" font-weight="bold" text-decoration="none" x="378" y="45.5">Bookstore: Concept</text><path fill="none" stroke="#000000" d="M 513.5 45.5 L 372.5 45.5" stroke-miterlimit="10"/></g></g><g transform="translate(-38,-14) scale(1,1)"><rect fill="#ffffff" stroke="none" x="72" y="248" width="100" height="26"/></g><g transform="translate(-38,-14) scale(1,1)"><path fill="none" stroke="#000000" d="M 72 248 L 172 248 L 172 274 L 72 274 L 72 248 Z Z" stroke-miterlimit="10"/></g><g transform="translate(-38,-14) scale(1,1)"><rect fill="#ffffff" stroke="none" x="72" y="248" width="100" height="26"/></g><g transform="translate(-38,-14) scale(1,1)"><path fill="none" stroke="#000000" d="M 72 248 L 172 248 L 172 274 L 72 274 L 72 248 Z Z" stroke-miterlimit="10"/></g><g transform="translate(-38,-14) scale(1,1)"><g><path fill="none" stroke="none"/><text fill="#000000" stroke="none" font-family="Arial" font-size="15px" font-style="normal" font-weight="bold" text-decoration="none" x="84.5" y="269.5">Book: Type</text><path fill="none" stroke="#000000" d="M 162 269.5 L 82 269.5" stroke-miterlimit="10"/></g></g><g transform="translate(-38,-14) scale(1,1)"><rect fill="#ffffff" stroke="none" x="336" y="456" width="128" height="26"/></g><g transform="translate(-38,-14) scale(1,1)"><path fill="none" stroke="#000000" d="M 336 456 L 464 456 L 464 482 L 336 482 L 336 456 Z Z" stroke-miterlimit="10"/></g><g transform="translate(-38,-14) scale(1,1)"><rect fill="#ffffff" stroke="none" x="336" y="456" width="128" height="26"/></g><g transform="translate(-38,-14) scale(1,1)"><path fill="none" stroke="#000000" d="M 336 456 L 464 456 L 464 482 L 336 482 L 336 456 Z Z" stroke-miterlimit="10"/></g><g transform="translate(-38,-14) scale(1,1)"><g><path fill="none" stroke="none"/><text fill="#000000" stroke="none" font-family="Arial" font-size="15px" font-style="normal" font-weight="bold" text-decoration="none" x="347.5" y="477.5">Customer: Type</text><path fill="none" stroke="#000000" d="M 456 477.5 L 344 477.5" stroke-miterlimit="10"/></g></g><g transform="translate(-38,-14) scale(1,1)"><rect fill="#ffffff" stroke="none" x="728" y="240" width="103" height="26"/></g><g transform="translate(-38,-14) scale(1,1)"><path fill="none" stroke="#000000" d="M 728 240 L 831 240 L 831 266 L 728 266 L 728 240 Z Z" stroke-miterlimit="10"/></g><g transform="translate(-38,-14) scale(1,1)"><rect fill="#ffffff" stroke="none" x="728" y="240" width="103" height="26"/></g><g transform="translate(-38,-14) scale(1,1)"><path fill="none" stroke="#000000" d="M 728 240 L 831 240 L 831 266 L 728 266 L 728 240 Z Z" stroke-miterlimit="10"/></g><g transform="translate(-38,-14) scale(1,1)"><g><path fill="none" stroke="none"/><text fill="#000000" stroke="none" font-family="Arial" font-size="15px" font-style="normal" font-weight="bold" text-decoration="none" x="740" y="261.5">Order: Type</text><path fill="none" stroke="#000000" d="M 821.5 261.5 L 737.5 261.5" stroke-miterlimit="10"/></g></g><g transform="translate(-38,-14) scale(1,1)"><rect fill="#ffffff" stroke="none" x="472" y="152" width="211" height="26"/></g><g transform="translate(-38,-14) scale(1,1)"><path fill="none" stroke="#000000" d="M 472 152 L 683 152 L 683 178 L 472 178 L 472 152 Z Z" stroke-miterlimit="10"/></g><g transform="translate(-38,-14) scale(1,1)"><rect fill="#ffffff" stroke="none" x="472" y="152" width="211" height="26"/></g><g transform="translate(-38,-14) scale(1,1)"><path fill="none" stroke="#000000" d="M 472 152 L 683 152 L 683 178 L 472 178 L 472 152 Z Z" stroke-miterlimit="10"/></g><g transform="translate(-38,-14) scale(1,1)"><g><path fill="none" stroke="none"/><text fill="#000000" stroke="none" font-family="Arial" font-size="15px" font-style="normal" font-weight="bold" text-decoration="none" x="484.5" y="173.5">CustomerOrder: Association</text><path fill="none" stroke="#000000" d="M 678.5 173.5 L 476.5 173.5" stroke-miterlimit="10"/></g></g><g transform="translate(-38,-14) scale(1,1)"><rect fill="#ffffff" stroke="none" x="408" y="344" width="153" height="26"/></g><g transform="translate(-38,-14) scale(1,1)"><path fill="none" stroke="#000000" d="M 408 344 L 561 344 L 561 370 L 408 370 L 408 344 Z Z" stroke-miterlimit="10"/></g><g transform="translate(-38,-14) scale(1,1)"><rect fill="#ffffff" stroke="none" x="408" y="344" width="153" height="26"/></g><g transform="translate(-38,-14) scale(1,1)"><path fill="none" stroke="#000000" d="M 408 344 L 561 344 L 561 370 L 408 370 L 408 344 Z Z" stroke-miterlimit="10"/></g><g transform="translate(-38,-14) scale(1,1)"><g><path fill="none" stroke="none"/><text fill="#000000" stroke="none" font-family="Arial" font-size="15px" font-style="normal" font-weight="bold" text-decoration="none" x="418" y="365.5">customers: Property</text><path fill="none" stroke="#000000" d="M 556.5 365.5 L 412.5 365.5" stroke-miterlimit="10"/></g></g><g transform="translate(-38,-14) scale(1,1)"><rect fill="#ffffff" stroke="none" x="712" y="152" width="125" height="26"/></g><g transform="translate(-38,-14) scale(1,1)"><path fill="none" stroke="#000000" d="M 712 152 L 837 152 L 837 178 L 712 178 L 712 152 Z Z" stroke-miterlimit="10"/></g><g transform="translate(-38,-14) scale(1,1)"><rect fill="#ffffff" stroke="none" x="712" y="152" width="125" height="26"/></g><g transform="translate(-38,-14) scale(1,1)"><path fill="none" stroke="#000000" d="M 712 152 L 837 152 L 837 178 L 712 178 L 712 152 Z Z" stroke-miterlimit="10"/></g><g transform="translate(-38,-14) scale(1,1)"><g><path fill="none" stroke="none"/><text fill="#000000" stroke="none" font-family="Arial" font-size="15px" font-style="normal" font-weight="bold" text-decoration="none" x="721.5" y="173.5">orders: Property</text><path fill="none" stroke="#000000" d="M 832.5 173.5 L 716.5 173.5" stroke-miterlimit="10"/></g></g><g transform="translate(-38,-14) scale(1,1)"><rect fill="#ffffff" stroke="none" x="208" y="344" width="187" height="26"/></g><g transform="translate(-38,-14) scale(1,1)"><path fill="none" stroke="#000000" d="M 208 344 L 395 344 L 395 370 L 208 370 L 208 344 Z Z" stroke-miterlimit="10"/></g><g transform="translate(-38,-14) scale(1,1)"><rect fill="#ffffff" stroke="none" x="208" y="344" width="187" height="26"/></g><g transform="translate(-38,-14) scale(1,1)"><path fill="none" stroke="#000000" d="M 208 344 L 395 344 L 395 370 L 208 370 L 208 344 Z Z" stroke-miterlimit="10"/></g><g transform="translate(-38,-14) scale(1,1)"><g><path fill="none" stroke="none"/><text fill="#000000" stroke="none" font-family="Arial" font-size="15px" font-style="normal" font-weight="bold" text-decoration="none" x="220" y="365.5">goldCustomers: Property</text><path fill="none" stroke="#000000" d="M 390.5 365.5 L 212.5 365.5" stroke-miterlimit="10"/></g></g><g transform="translate(-38,-14) scale(1,1)"><rect fill="#ffffff" stroke="none" x="176" y="152" width="179" height="26"/></g><g transform="translate(-38,-14) scale(1,1)"><path fill="none" stroke="#000000" d="M 176 152 L 355 152 L 355 178 L 176 178 L 176 152 Z Z" stroke-miterlimit="10"/></g><g transform="translate(-38,-14) scale(1,1)"><rect fill="#ffffff" stroke="none" x="176" y="152" width="179" height="26"/></g><g transform="translate(-38,-14) scale(1,1)"><path fill="none" stroke="#000000" d="M 176 152 L 355 152 L 355 178 L 176 178 L 176 152 Z Z" stroke-miterlimit="10"/></g><g transform="translate(-38,-14) scale(1,1)"><g><path fill="none" stroke="none"/><text fill="#000000" stroke="none" font-family="Arial" font-size="15px" font-style="normal" font-weight="bold" text-decoration="none" x="187.5" y="173.5">orderedBooks: Property</text><path fill="none" stroke="#000000" d="M 350.5 173.5 L 180.5 173.5" stroke-miterlimit="10"/></g></g><g transform="translate(-38,-14) scale(1,1)"><path fill="none" stroke="#000000" d="M 424 51 L 284 151" stroke-miterlimit="10"/></g><g transform="translate(-38,-14) scale(1,1)"><path fill="none" stroke="#000000" d="M 289.8229761917047 141.6676397266908 L 284 151 L 294.7164411855751 148.51849071810935" stroke-miterlimit="10"/></g><g transform="translate(-38,-14) scale(1,1)"><path fill="none" stroke="#000000" d="M 445 51 L 482 343" stroke-miterlimit="10"/></g><g transform="translate(-38,-14) scale(1,1)"><path fill="none" stroke="#000000" d="M 476.5463536144397 333.44710823356274 L 482 343 L 484.8986042065657 332.38877511058786" stroke-miterlimit="10"/></g><g transform="translate(-38,-14) scale(1,1)"><path fill="none" stroke="#000000" d="M 437 51 L 307 343" stroke-miterlimit="10"/></g><g transform="translate(-38,-14) scale(1,1)"><path fill="none" stroke="#000000" d="M 307.2877334676689 332.0037638506813 L 307 343 L 314.9789714348749 335.4279451374511" stroke-miterlimit="10"/></g><g transform="translate(-38,-14) scale(1,1)"><path fill="none" stroke="#000000" d="M 479 51 L 738 151" stroke-miterlimit="10"/></g><g transform="translate(-38,-14) scale(1,1)"><path fill="none" stroke="#000000" d="M 727.0032294544011 151.26652873662718 L 738 151 L 730.0356446990044 143.41257325310465" stroke-miterlimit="10"/></g><g transform="translate(-38,-14) scale(1,1)"><path fill="none" stroke="#000000" d="M 458 51 L 562 151" stroke-miterlimit="10"/></g><g transform="translate(-38,-14) scale(1,1)"><path fill="none" stroke="#000000" d="M 551.7567544868664 146.99052106157563 L 562 151 L 557.592061382689 140.92180188992006" stroke-miterlimit="10"/></g><g transform="translate(-38,-14) scale(1,1)"><path fill="none" stroke="#000000" d="M 244 179 L 143 247" stroke-miterlimit="10"/></g><g transform="translate(-38,-14) scale(1,1)"><path fill="none" stroke="#000000" d="M 149.07913415899347 237.8324415531201 L 143 247 L 153.78103973227985 244.81615424285428" stroke-miterlimit="10"/></g><g transform="translate(-38,-14) scale(1,1)"><path fill="none" stroke="#000000" d="M 313 371 L 388 455" stroke-miterlimit="10"/></g><g transform="translate(-38,-14) scale(1,1)"><path fill="none" stroke="#000000" d="M 378.0914604549684 450.2228832875316 L 388 455 L 384.37153611795907 444.6156728741471" stroke-miterlimit="10"/></g><g transform="translate(-38,-14) scale(1,1)"><path fill="none" stroke="#000000" d="M 474 371 L 411 455" stroke-miterlimit="10"/></g><g transform="translate(-38,-14) scale(1,1)"><path fill="none" stroke="#000000" d="M 413.7299907097617 444.3441494602911 L 411 455 L 420.46521911938726 449.39557076751026" stroke-miterlimit="10"/></g><g transform="translate(-38,-14) scale(1,1)"><path fill="none" stroke="#000000" d="M 775 179 L 778 239" stroke-miterlimit="10"/></g><g transform="translate(-38,-14) scale(1,1)"><path fill="none" stroke="#000000" d="M 773.2882345314658 229.06021800191124 L 778 239 L 781.6967659402035 228.63979143147438" stroke-miterlimit="10"/></g><g transform="translate(-38,-14) scale(1,1)"><path fill="none" stroke="#000000" d="M 570 179 L 491 343" stroke-miterlimit="10"/></g><g transform="translate(-38,-14) scale(1,1)"><path fill="none" stroke="#000000" d="M 491.61795787915617 332.01737153229755 L 491 343 L 499.20285327160383 335.67107114207414" stroke-miterlimit="10"/></g><g transform="translate(-38,-14) scale(1,1)"><path fill="none" stroke="#000000" d="M 684 165 L 711 165" stroke-miterlimit="10"/></g><g transform="translate(-38,-14) scale(1,1)"><path fill="none" stroke="#000000" d="M 700.8373251423759 169.209517756016 L 711 165 L 700.8373251423758 160.790482243984" stroke-miterlimit="10"/></g><g transform="translate(-38,-14) scale(1,1)"><rect fill="#ffffff" stroke="none" x="48" y="152" width="122" height="26"/></g><g transform="translate(-38,-14) scale(1,1)"><path fill="none" stroke="#000000" d="M 48 152 L 170 152 L 170 178 L 48 178 L 48 152 Z Z" stroke-miterlimit="10"/></g><g transform="translate(-38,-14) scale(1,1)"><rect fill="#ffffff" stroke="none" x="48" y="152" width="122" height="26"/></g><g transform="translate(-38,-14) scale(1,1)"><path fill="none" stroke="#000000" d="M 48 152 L 170 152 L 170 178 L 48 178 L 48 152 Z Z" stroke-miterlimit="10"/></g><g transform="translate(-38,-14) scale(1,1)"><g><path fill="none" stroke="none"/><text fill="#000000" stroke="none" font-family="Arial" font-size="15px" font-style="normal" font-weight="bold" text-decoration="none" x="57" y="173.5">books: Property</text><path fill="none" stroke="#000000" d="M 165.5 173.5 L 52.5 173.5" stroke-miterlimit="10"/></g></g><g transform="translate(-38,-14) scale(1,1)"><path fill="none" stroke="#000000" d="M 406 51 L 146 151" stroke-miterlimit="10"/></g><g transform="translate(-38,-14) scale(1,1)"><path fill="none" stroke="#000000" d="M 153.97415911724485 143.4228774344834 L 146 151 L 156.99641673402277 151.28074723810596" stroke-miterlimit="10"/></g><g transform="translate(-38,-14) scale(1,1)"><path fill="none" stroke="#000000" d="M 111 179 L 120 247" stroke-miterlimit="10"/></g><g transform="translate(-38,-14) scale(1,1)"><path fill="none" stroke="#000000" d="M 114.49344296008641 237.4775092771808 L 120 247 L 122.83969393997803 236.37285841219511" stroke-miterlimit="10"/></g><g transform="translate(-38,-14) scale(1,1)"><rect fill="#ffffff" stroke="none" x="184" y="248" width="134" height="26"/></g><g transform="translate(-38,-14) scale(1,1)"><path fill="none" stroke="#000000" d="M 184 248 L 318 248 L 318 274 L 184 274 L 184 248 Z Z" stroke-miterlimit="10"/></g><g transform="translate(-38,-14) scale(1,1)"><rect fill="#ffffff" stroke="none" x="184" y="248" width="134" height="26"/></g><g transform="translate(-38,-14) scale(1,1)"><path fill="none" stroke="#000000" d="M 184 248 L 318 248 L 318 274 L 184 274 L 184 248 Z Z" stroke-miterlimit="10"/></g><g transform="translate(-38,-14) scale(1,1)"><g><path fill="none" stroke="none"/><text fill="#000000" stroke="none" font-family="Arial" font-size="15px" font-style="normal" font-weight="bold" text-decoration="none" x="210" y="269.5">: Expression</text><path fill="none" stroke="#000000" d="M 295 269.5 L 207 269.5" stroke-miterlimit="10"/></g></g><g transform="translate(-38,-14) scale(1,1)"><path fill="none" stroke="#000000" d="M 263 179 L 253 247" stroke-miterlimit="10"/></g><g transform="translate(-38,-14) scale(1,1)"><path fill="none" stroke="#000000" d="M 250.31388327174224 236.33300525348523 L 253 247 L 258.6433329665322 237.55792432624844" stroke-miterlimit="10"/></g><g transform="translate(-38,-14) scale(1,1)"><rect fill="#ffffff" stroke="none" x="208" y="456" width="97" height="26"/></g><g transform="translate(-38,-14) scale(1,1)"><path fill="none" stroke="#000000" d="M 208 456 L 305 456 L 305 482 L 208 482 L 208 456 Z Z" stroke-miterlimit="10"/></g><g transform="translate(-38,-14) scale(1,1)"><rect fill="#ffffff" stroke="none" x="208" y="456" width="97" height="26"/></g><g transform="translate(-38,-14) scale(1,1)"><path fill="none" stroke="#000000" d="M 208 456 L 305 456 L 305 482 L 208 482 L 208 456 Z Z" stroke-miterlimit="10"/></g><g transform="translate(-38,-14) scale(1,1)"><g><path fill="none" stroke="none"/><text fill="#000000" stroke="none" font-family="Arial" font-size="15px" font-style="normal" font-weight="bold" text-decoration="none" x="215.5" y="477.5">: Expression</text><path fill="none" stroke="#000000" d="M 300.5 477.5 L 212.5 477.5" stroke-miterlimit="10"/></g></g><g transform="translate(-38,-14) scale(1,1)"><path fill="none" stroke="#000000" d="M 295 371 L 262 455" stroke-miterlimit="10"/></g><g transform="translate(-38,-14) scale(1,1)"><path fill="none" stroke="#000000" d="M 261.79799123377825 444.0018550446737 L 262 455 L 269.63402110992934 447.0802953531616" stroke-miterlimit="10"/></g></g></svg>